#!OML:ASF X:\für Bonn\!DataBase\2005_08_12_Daniel\c3d\Daniel.ASF
:FULLY-SPECIFIED
:DEGREES
102
root -3.47292 17.1516 -0.905281 209.795 -80.422 -219.987
lowerback 17.0371 -4.30957 -10.9987
upperback 6.02325 -7.99682 -2.33653
thorax -1.8478 -4.27697 5.04209
lowerneck 8.98311 10.1709 3.58622
upperneck 16.4112 13.7984 -8.48093
head 4.34247 6.30311 -3.00366
rclavicle -2.88238e-014 -1.94809e-014
rhumerus -15.2486 25.3377 -87.7915
rradius 91.3476
rwrist -14.1616
rhand -31.3683 38.065
rfingers 7.12502
rthumb -4.63881 8.13582
lclavicle -2.88238e-014 -1.94809e-014
lhumerus -22.5004 -11.3456 75.9858
lradius 110.968
lwrist 41.805
lhand -12.7039 -7.62623
lfingers 7.12502
lthumb 13.3786 21.9242
rfemur -16.2931 4.36356 5.72776
rtibia 46.3414
rfoot -6.5592 -0.0130441
rtoes -8.95778
lfemur -1.60591 -12.986 -27.6443
ltibia 32.0419
lfoot -33.438 21.8272
ltoes 6.43683
103
root -3.4967 17.134 -0.959523 210.748 -79.8451 -220.683
lowerback 16.596 -3.95878 -11.0376
upperback 5.84416 -7.49077 -2.46191
thorax -1.901 -4.00935 4.82885
lowerneck 8.62073 10.1926 3.49622
upperneck 16.7599 13.8498 -8.44959
head 4.5025 6.30324 -2.9533
rclavicle 3.57812e-015 -4.25399e-014
rhumerus -13.3589 25.89 -87.3185
rradius 92.1417
rwrist -14.7112
rhand -31.4377 38.1816
rfingers 7.12502
rthumb -4.70579 8.25391
lclavicle 3.57812e-015 -4.25399e-014
lhumerus -24.3557 -11.7962 76.3494
lradius 109.466
lwrist 41.5087
lhand -12.8101 -7.4886
lfingers 7.12502
lthumb 13.2762 22.0686
rfemur -15.6348 4.65229 5.4933
rtibia 45.198
rfoot -8.29394 0.397729
rtoes -8.1142
lfemur -1.82691 -12.995 -27.9258
ltibia 32.1546
lfoot -33.7622 22.0334
ltoes 6.43432
104
root -3.51769 17.1158 -1.0142 211.565 -79.2784 -221.252
lowerback 16.1916 -3.60652 -11.052
upperback 5.67229 -6.98443 -2.59284
thorax -1.96642 -3.74195 4.60221
lowerneck 8.28403 10.2253 3.34339
upperneck 17.0732 13.9053 -8.36388
head 4.64061 6.30592 -2.87866
rclavicle 1.59028e-015 -6.75868e-015
rhumerus -11.3446 26.4073 -86.7688
rradius 92.8615
rwrist -15.2286
rhand -31.5828 38.2834
rfingers 7.12502
rthumb -4.84592 8.35886
lclavicle 1.59028e-015 -6.75868e-015
lhumerus -26.1959 -12.2184 76.7
lradius 107.986
lwrist 41.3278
lhand -12.8375 -7.25573
lfingers 7.12502
lthumb 13.2498 22.3031
rfemur -15.075 4.85021 5.27189
rtibia 44.1672
rfoot -9.92402 0.820121
rtoes -7.44839
lfemur -2.05131 -12.9578 -28.1824
ltibia 32.2867
lfoot -34.0593 22.1931
ltoes 6.38432
105
root -3.53525 17.098 -1.06921 212.06 -78.7569 -221.519
lowerback 15.8623 -3.25047 -11.0017
upperback 5.50694 -6.47423 -2.72738
thorax -2.06983 -3.47119 4.3449
lowerneck 7.93253 10.243 3.26159
upperneck 17.4265 13.9498 -8.30007
head 4.7993 6.30409 -2.82021
rclavicle -7.28546e-014 2.70347e-014
rhumerus -9.26042 26.8518 -86.1957
rradius 93.5162
rwrist -15.7121
rhand -31.7645 38.4173
rfingers 7.12502
rthumb -5.02133 8.49677
lclavicle -7.28546e-014 2.70347e-014
lhumerus -27.9923 -12.6374 77.0358
lradius 106.472
lwrist 41.2279
lhand -12.8075 -7.00387
lfingers 7.12502
lthumb 13.2787 22.5531
rfemur -14.6223 4.97297 5.13427
rtibia 43.2666
rfoot -11.4353 1.19726
rtoes -6.77969
lfemur -2.26085 -12.8973 -28.3582
ltibia 32.4047
lfoot -34.2934 22.332
ltoes 6.38583
106
root -3.55015 17.0845 -1.12496 212.215 -78.2824 -221.467
lowerback 15.5959 -2.88969 -10.9062
upperback 5.35701 -5.95809 -2.83103
thorax -2.18787 -3.19828 4.09978
lowerneck 7.6025 10.2606 3.13445
upperneck 17.7335 13.9901 -8.22949
head 4.93681 6.30036 -2.75485
rclavicle -4.01048e-014 -5.1684e-014
rhumerus -7.12082 27.2394 -85.5839
rradius 94.1436
rwrist -16.1466
rhand -31.93 38.579
rfingers 7.12502
rthumb -5.18119 8.66238
lclavicle -4.01048e-014 -5.1684e-014
lhumerus -29.6949 -12.9687 77.3957
lradius 105.004
lwrist 41.1311
lhand -12.7167 -6.56906
lfingers 7.12502
lthumb 13.3663 22.9822
rfemur -14.276 5.01458 5.09505
rtibia 42.5132
rfoot -12.8644 1.49951
rtoes -6.27584
lfemur -2.4419 -12.7164 -28.4265
ltibia 32.4876
lfoot -34.3981 22.4552
ltoes 6.22921
107
root -3.5627 17.0738 -1.1814 212.234 -77.8426 -221.306
lowerback 15.3862 -2.52823 -10.7431
upperback 5.21957 -5.44103 -2.9573
thorax -2.3276 -2.92502 3.79759
lowerneck 7.33691 10.2754 3.02286
upperneck 17.9944 14.0224 -8.1448
head 5.0496 6.29788 -2.69202
rclavicle 4.42793e-014 1.27222e-014
rhumerus -4.97116 27.4995 -85.0132
rradius 94.7449
rwrist -16.6
rhand -32.0465 38.7623
rfingers 7.12502
rthumb -5.29359 8.84841
lclavicle 4.42793e-014 1.27222e-014
lhumerus -31.305 -13.2894 77.7155
lradius 103.482
lwrist 41.0649
lhand -12.6755 -6.1774
lfingers 7.12502
lthumb 13.406 23.3713
rfemur -14.021 4.96637 5.11724
rtibia 41.8867
rfoot -14.0849 1.69208
rtoes -6.10995
lfemur -2.56878 -12.5212 -28.445
ltibia 32.5255
lfoot -34.47 22.5476
ltoes 6.11189
108
root -3.57463 17.0665 -1.23754 212.187 -77.4364 -221.104
lowerback 15.2135 -2.18023 -10.5034
upperback 5.10822 -4.93696 -3.10351
thorax -2.46029 -2.66075 3.43472
lowerneck 7.03944 10.2976 2.8269
upperneck 18.2476 14.053 -7.9816
head 5.15421 6.29305 -2.59077
rclavicle -5.2181e-014 4.05521e-014
rhumerus -2.81093 27.6594 -84.4963
rradius 95.3477
rwrist -17.0303
rhand -32.0342 38.922
rfingers 7.12502
rthumb -5.28173 9.00783
lclavicle -5.2181e-014 4.05521e-014
lhumerus -32.8027 -13.5559 77.9613
lradius 101.949
lwrist 41.1009
lhand -12.6032 -5.83151
lfingers 7.12502
lthumb 13.4756 23.7125
rfemur -13.8209 4.78398 5.16247
rtibia 41.3709
rfoot -15.0464 1.90479
rtoes -6.43655
lfemur -2.65662 -12.2939 -28.4193
ltibia 32.518
lfoot -34.5136 22.6067
ltoes 5.86517
109
root -3.58675 17.0608 -1.29407 211.967 -77.0715 -220.76
lowerback 15.0754 -1.82339 -10.233
upperback 5.02212 -4.41976 -3.22372
thorax -2.57873 -2.39297 3.08009
lowerneck 6.78451 10.2934 2.69985
upperneck 18.4791 14.0603 -7.90598
head 5.25446 6.27871 -2.53034
rclavicle 3.03147e-015 -2.0276e-014
rhumerus -0.71884 27.7133 -84.0325
rradius 95.9585
rwrist -17.4843
rhand -31.9332 39.0868
rfingers 7.12502
rthumb -5.18423 9.17018
lclavicle 3.03147e-015 -2.0276e-014
lhumerus -34.1074 -13.8 78.166
lradius 100.302
lwrist 41.1995
lhand -12.6536 -5.62645
lfingers 7.12502
lthumb 13.4271 23.9208
rfemur -13.6447 4.53461 5.2659
rtibia 40.9239
rfoot -15.7002 2.08641
rtoes -6.97193
lfemur -2.69663 -12.0676 -28.3401
ltibia 32.5043
lfoot -34.5541 22.6641
ltoes 5.71493
110
root -3.59817 17.0568 -1.35092 211.735 -76.7464 -220.409
lowerback 14.9365 -1.47104 -9.96477
upperback 4.94673 -3.90916 -3.34784
thorax -2.67675 -2.13086 2.72138
lowerneck 6.68702 10.2537 2.74552
upperneck 18.6206 14.03 -7.93315
head 5.3176 6.25965 -2.53917
rclavicle 2.45996e-014 2.66371e-014
rhumerus 1.29143 27.6776 -83.6636
rradius 96.5878
rwrist -17.9653
rhand -31.7126 39.2124
rfingers 7.12502
rthumb -4.97122 9.29073
lclavicle 2.45996e-014 2.66371e-014
lhumerus -35.2078 -14.0251 78.2772
lradius 98.5506
lwrist 41.333
lhand -12.8175 -5.61039
lfingers 7.12502
lthumb 13.2691 23.9472
rfemur -13.5065 4.18191 5.39298
rtibia 40.5417
rfoot -16.1752 2.25547
rtoes -7.64416
lfemur -2.74881 -11.8194 -28.2179
ltibia 32.5116
lfoot -34.5502 22.7023
ltoes 5.45162
111
root -3.6089 17.0576 -1.41181 211.517 -76.4522 -220.124
lowerback 14.8362 -1.10501 -9.74909
upperback 4.9051 -3.39318 -3.46338
thorax -2.74836 -1.87035 2.39916
lowerneck 6.651 10.1866 2.875
upperneck 18.7138 13.969 -8.01506
head 5.36305 6.2323 -2.58304
rclavicle -2.98177e-016 6.16232e-014
rhumerus 3.19791 27.5761 -83.3497
rradius 97.2871
rwrist -18.4178
rhand -31.4493 39.2543
rfingers 7.12502
rthumb -4.71704 9.32686
lclavicle -2.98177e-016 6.16232e-014
lhumerus -36.1869 -14.199 78.353
lradius 96.7925
lwrist 41.4497
lhand -13.0736 -5.77239
lfingers 7.12502
lthumb 13.0223 23.8011
rfemur -13.3177 3.8603 5.54514
rtibia 40.1998
rfoot -16.5772 2.40973
rtoes -8.3101
lfemur -2.79603 -11.4856 -28.0476
ltibia 32.5855
lfoot -34.4353 22.7122
ltoes 5.11212
